<mxfile host="app.diagrams.net" modified="2023-10-11T07:30:20.034Z" agent="Mozilla/5.0 (Windows NT 10.0; Win64; x64) AppleWebKit/537.36 (KHTML, like Gecko) Chrome/114.0.0.0 Safari/537.36" etag="F5RLXxaUkG4vLHp85v3-" version="22.0.4" type="github" pages="2">
  <diagram name="理货单据明细决策" id="SSeMMiir3edaBHUvej0P">
    <mxGraphModel dx="1434" dy="764" grid="1" gridSize="10" guides="1" tooltips="1" connect="1" arrows="1" fold="1" page="1" pageScale="1" pageWidth="827" pageHeight="1169" math="0" shadow="0">
      <root>
        <mxCell id="0" />
        <mxCell id="1" parent="0" />
        <mxCell id="QteMDIXKet4iBMp_x6c--47" value="" style="group;fillColor=none;dashed=1;strokeColor=default;container=0;" vertex="1" connectable="0" parent="1">
          <mxGeometry x="910" y="350" width="500" height="260" as="geometry" />
        </mxCell>
        <mxCell id="QteMDIXKet4iBMp_x6c--1" value="&lt;pre style=&quot;background-color:#ffffff;color:#080808;font-family:&#39;Courier New&#39;,monospace;font-size:9.0pt;&quot;&gt;&lt;b&gt;批量决策明细 &lt;span style=&quot;color:#8c8c8c;font-style:italic;font-family:&#39;JetBrains Mono&#39;,monospace;&quot;&gt;- &lt;/span&gt;&lt;span style=&quot;color:#8c8c8c;font-style:italic;&quot;&gt;保存决策 批量决策明细 &lt;/span&gt;&lt;span style=&quot;color:#8c8c8c;font-style:italic;font-family:&#39;JetBrains Mono&#39;,monospace;&quot;&gt;- &lt;/span&gt;&lt;span style=&quot;color:#8c8c8c;font-style:italic;&quot;&gt;支持分批提交决策&lt;/span&gt;&lt;/b&gt;&lt;/pre&gt;" style="text;html=1;strokeColor=none;fillColor=none;align=left;verticalAlign=middle;whiteSpace=wrap;rounded=0;" vertex="1" parent="1">
          <mxGeometry x="10" y="20" width="380" height="30" as="geometry" />
        </mxCell>
        <mxCell id="QteMDIXKet4iBMp_x6c--2" value="&lt;div style=&quot;text-align: left;&quot;&gt;&lt;span style=&quot;background-color: initial;&quot;&gt;&lt;br&gt;&lt;/span&gt;&lt;/div&gt;&lt;div style=&quot;text-align: left;&quot;&gt;&lt;span style=&quot;background-color: initial;&quot;&gt;接收参数：&lt;/span&gt;&lt;/div&gt;&lt;div style=&quot;text-align: left;&quot;&gt;&lt;span style=&quot;background-color: initial;&quot;&gt;&lt;div&gt;{&lt;/div&gt;&lt;div&gt;&amp;nbsp; &amp;nbsp; &quot;param&quot;: {&lt;/div&gt;&lt;div&gt;&amp;nbsp; &amp;nbsp; &amp;nbsp; &amp;nbsp; &quot;buyerGroupCode&quot;: &quot;G23010300001&quot;,&lt;/div&gt;&lt;div&gt;&amp;nbsp; &amp;nbsp; &amp;nbsp; &amp;nbsp; &quot;decisionList&quot;: [&lt;/div&gt;&lt;div&gt;&amp;nbsp; &amp;nbsp; &amp;nbsp; &amp;nbsp; &amp;nbsp; &amp;nbsp; {&lt;/div&gt;&lt;div&gt;&amp;nbsp; &amp;nbsp; &amp;nbsp; &amp;nbsp; &amp;nbsp; &amp;nbsp; &amp;nbsp; &amp;nbsp; &quot;id&quot;: &quot;125&quot;,&lt;/div&gt;&lt;div&gt;&amp;nbsp; &amp;nbsp; &amp;nbsp; &amp;nbsp; &amp;nbsp; &amp;nbsp; &amp;nbsp; &amp;nbsp; &quot;tallyId&quot;: &quot;237204&quot;,&lt;/div&gt;&lt;div&gt;&amp;nbsp; &amp;nbsp; &amp;nbsp; &amp;nbsp; &amp;nbsp; &amp;nbsp; &amp;nbsp; &amp;nbsp; &quot;itemStatus&quot;: &quot;11&quot;,&lt;/div&gt;&lt;div&gt;&amp;nbsp; &amp;nbsp; &amp;nbsp; &amp;nbsp; &amp;nbsp; &amp;nbsp; &amp;nbsp; &amp;nbsp; &quot;remark&quot;: &quot;重新检查&quot;&lt;/div&gt;&lt;div&gt;&amp;nbsp; &amp;nbsp; &amp;nbsp; &amp;nbsp; &amp;nbsp; &amp;nbsp; }&lt;/div&gt;&lt;div&gt;&amp;nbsp; &amp;nbsp; &amp;nbsp; &amp;nbsp; ]&lt;/div&gt;&lt;div&gt;&amp;nbsp; &amp;nbsp; }&lt;/div&gt;&lt;div&gt;}&lt;/div&gt;&lt;div&gt;&lt;br&gt;&lt;/div&gt;&lt;/span&gt;&lt;/div&gt;&lt;div style=&quot;text-align: left;&quot;&gt;&lt;span style=&quot;background-color: initial;&quot;&gt;buyerGroupCode: 买手组&lt;/span&gt;&lt;/div&gt;&lt;div style=&quot;text-align: left;&quot;&gt;&lt;span style=&quot;background-color: initial;&quot;&gt;id: 明细id&lt;/span&gt;&lt;/div&gt;&lt;div style=&quot;text-align: left;&quot;&gt;tallyId: 理货单据id&lt;/div&gt;&lt;div style=&quot;text-align: left;&quot;&gt;itemCode: 商品条码，通过明细查询获取&lt;/div&gt;&lt;div style=&quot;text-align: left;&quot;&gt;itemStatusDesc：决策方式&lt;/div&gt;&lt;div style=&quot;text-align: left;&quot;&gt;itemStatus: 决策方式&lt;/div&gt;&lt;div style=&quot;text-align: left;&quot;&gt;poNo: 旧po，数据库拆线呢&lt;/div&gt;&lt;div style=&quot;text-align: left;&quot;&gt;poNoNew: 新po，手工创建鼻涕那&lt;/div&gt;&lt;div style=&quot;text-align: left;&quot;&gt;discountRateStr: 折扣率&lt;/div&gt;&lt;div style=&quot;text-align: left;&quot;&gt;discountRate: 折扣i率&lt;/div&gt;&lt;div style=&quot;text-align: left;&quot;&gt;remark: 备注&lt;/div&gt;&lt;div style=&quot;text-align: left;&quot;&gt;&lt;br&gt;&lt;/div&gt;" style="text;html=1;strokeColor=none;fillColor=none;align=center;verticalAlign=middle;whiteSpace=wrap;rounded=0;" vertex="1" parent="1">
          <mxGeometry x="10" y="60" width="250" height="420" as="geometry" />
        </mxCell>
        <mxCell id="QteMDIXKet4iBMp_x6c--8" style="edgeStyle=orthogonalEdgeStyle;rounded=0;orthogonalLoop=1;jettySize=auto;html=1;" edge="1" parent="1" source="QteMDIXKet4iBMp_x6c--3" target="QteMDIXKet4iBMp_x6c--4">
          <mxGeometry relative="1" as="geometry" />
        </mxCell>
        <mxCell id="QteMDIXKet4iBMp_x6c--3" value="开始" style="rounded=1;whiteSpace=wrap;html=1;" vertex="1" parent="1">
          <mxGeometry x="560" y="100" width="110" height="40" as="geometry" />
        </mxCell>
        <mxCell id="QteMDIXKet4iBMp_x6c--9" style="edgeStyle=orthogonalEdgeStyle;rounded=0;orthogonalLoop=1;jettySize=auto;html=1;entryX=0.5;entryY=0;entryDx=0;entryDy=0;" edge="1" parent="1" source="QteMDIXKet4iBMp_x6c--4" target="QteMDIXKet4iBMp_x6c--6">
          <mxGeometry relative="1" as="geometry" />
        </mxCell>
        <mxCell id="QteMDIXKet4iBMp_x6c--4" value="参数检查" style="rounded=0;whiteSpace=wrap;html=1;" vertex="1" parent="1">
          <mxGeometry x="560" y="200" width="110" height="40" as="geometry" />
        </mxCell>
        <mxCell id="QteMDIXKet4iBMp_x6c--5" value="提交的决策明细" style="text;html=1;strokeColor=none;fillColor=none;align=center;verticalAlign=middle;whiteSpace=wrap;rounded=0;" vertex="1" parent="1">
          <mxGeometry x="430" y="105" width="90" height="30" as="geometry" />
        </mxCell>
        <mxCell id="QteMDIXKet4iBMp_x6c--10" style="edgeStyle=orthogonalEdgeStyle;rounded=0;orthogonalLoop=1;jettySize=auto;html=1;entryX=0.5;entryY=0;entryDx=0;entryDy=0;" edge="1" parent="1" source="QteMDIXKet4iBMp_x6c--6" target="QteMDIXKet4iBMp_x6c--7">
          <mxGeometry relative="1" as="geometry" />
        </mxCell>
        <mxCell id="QteMDIXKet4iBMp_x6c--43" style="edgeStyle=orthogonalEdgeStyle;rounded=0;orthogonalLoop=1;jettySize=auto;html=1;entryX=0.5;entryY=0;entryDx=0;entryDy=0;" edge="1" parent="1" source="QteMDIXKet4iBMp_x6c--6" target="QteMDIXKet4iBMp_x6c--41">
          <mxGeometry relative="1" as="geometry" />
        </mxCell>
        <mxCell id="QteMDIXKet4iBMp_x6c--6" value="决策明细为空?" style="rhombus;whiteSpace=wrap;html=1;" vertex="1" parent="1">
          <mxGeometry x="575" y="280" width="80" height="80" as="geometry" />
        </mxCell>
        <mxCell id="QteMDIXKet4iBMp_x6c--13" style="edgeStyle=orthogonalEdgeStyle;rounded=0;orthogonalLoop=1;jettySize=auto;html=1;" edge="1" parent="1" source="QteMDIXKet4iBMp_x6c--7" target="QteMDIXKet4iBMp_x6c--12">
          <mxGeometry relative="1" as="geometry" />
        </mxCell>
        <mxCell id="QteMDIXKet4iBMp_x6c--55" style="edgeStyle=orthogonalEdgeStyle;rounded=0;orthogonalLoop=1;jettySize=auto;html=1;entryX=0.5;entryY=0;entryDx=0;entryDy=0;" edge="1" parent="1" source="QteMDIXKet4iBMp_x6c--7" target="QteMDIXKet4iBMp_x6c--44">
          <mxGeometry relative="1" as="geometry" />
        </mxCell>
        <mxCell id="QteMDIXKet4iBMp_x6c--7" value="存在买手组？" style="rhombus;whiteSpace=wrap;html=1;" vertex="1" parent="1">
          <mxGeometry x="575" y="430" width="80" height="80" as="geometry" />
        </mxCell>
        <mxCell id="QteMDIXKet4iBMp_x6c--11" value="校验理货决策提交方案" style="text;html=1;strokeColor=none;fillColor=none;align=center;verticalAlign=middle;whiteSpace=wrap;rounded=0;" vertex="1" parent="1">
          <mxGeometry x="620" y="370" width="140" height="30" as="geometry" />
        </mxCell>
        <mxCell id="QteMDIXKet4iBMp_x6c--32" style="edgeStyle=orthogonalEdgeStyle;rounded=0;orthogonalLoop=1;jettySize=auto;html=1;entryX=0;entryY=0.5;entryDx=0;entryDy=0;" edge="1" parent="1" source="QteMDIXKet4iBMp_x6c--12" target="QteMDIXKet4iBMp_x6c--16">
          <mxGeometry relative="1" as="geometry" />
        </mxCell>
        <mxCell id="QteMDIXKet4iBMp_x6c--12" value="校验买手组" style="rounded=0;whiteSpace=wrap;html=1;" vertex="1" parent="1">
          <mxGeometry x="760" y="450" width="110" height="40" as="geometry" />
        </mxCell>
        <mxCell id="QteMDIXKet4iBMp_x6c--24" style="edgeStyle=orthogonalEdgeStyle;rounded=0;orthogonalLoop=1;jettySize=auto;html=1;entryX=0;entryY=0.5;entryDx=0;entryDy=0;" edge="1" parent="1" source="QteMDIXKet4iBMp_x6c--16" target="QteMDIXKet4iBMp_x6c--23">
          <mxGeometry relative="1" as="geometry" />
        </mxCell>
        <mxCell id="QteMDIXKet4iBMp_x6c--16" value="查询当前用oa信息" style="rounded=0;whiteSpace=wrap;html=1;fillColor=#e1d5e7;strokeColor=#9673a6;" vertex="1" parent="1">
          <mxGeometry x="940" y="450" width="110" height="40" as="geometry" />
        </mxCell>
        <mxCell id="QteMDIXKet4iBMp_x6c--17" value="查询买手组" style="rounded=0;whiteSpace=wrap;html=1;fillColor=#e1d5e7;strokeColor=#9673a6;" vertex="1" parent="1">
          <mxGeometry x="940" y="540" width="110" height="40" as="geometry" />
        </mxCell>
        <mxCell id="QteMDIXKet4iBMp_x6c--22" value="根据SessionUtil.getUserName查询" style="text;html=1;strokeColor=none;fillColor=none;align=center;verticalAlign=middle;whiteSpace=wrap;rounded=0;" vertex="1" parent="1">
          <mxGeometry x="940" y="400" width="200" height="30" as="geometry" />
        </mxCell>
        <mxCell id="QteMDIXKet4iBMp_x6c--26" style="edgeStyle=orthogonalEdgeStyle;rounded=0;orthogonalLoop=1;jettySize=auto;html=1;entryX=0;entryY=0.5;entryDx=0;entryDy=0;" edge="1" parent="1" source="QteMDIXKet4iBMp_x6c--23" target="QteMDIXKet4iBMp_x6c--25">
          <mxGeometry relative="1" as="geometry" />
        </mxCell>
        <mxCell id="QteMDIXKet4iBMp_x6c--28" style="edgeStyle=orthogonalEdgeStyle;rounded=0;orthogonalLoop=1;jettySize=auto;html=1;entryX=1;entryY=0.5;entryDx=0;entryDy=0;exitX=0.5;exitY=1;exitDx=0;exitDy=0;" edge="1" parent="1" source="QteMDIXKet4iBMp_x6c--23" target="QteMDIXKet4iBMp_x6c--17">
          <mxGeometry relative="1" as="geometry" />
        </mxCell>
        <mxCell id="QteMDIXKet4iBMp_x6c--23" value="用户存在?" style="rhombus;whiteSpace=wrap;html=1;" vertex="1" parent="1">
          <mxGeometry x="1120" y="430" width="80" height="80" as="geometry" />
        </mxCell>
        <mxCell id="QteMDIXKet4iBMp_x6c--25" value="结束" style="rounded=1;whiteSpace=wrap;html=1;fillColor=#fff2cc;strokeColor=#d6b656;" vertex="1" parent="1">
          <mxGeometry x="1260" y="450" width="110" height="40" as="geometry" />
        </mxCell>
        <mxCell id="QteMDIXKet4iBMp_x6c--27" value="抛出异常" style="text;html=1;strokeColor=none;fillColor=none;align=center;verticalAlign=middle;whiteSpace=wrap;rounded=0;" vertex="1" parent="1">
          <mxGeometry x="1272.5" y="420" width="85" height="20" as="geometry" />
        </mxCell>
        <mxCell id="QteMDIXKet4iBMp_x6c--30" value="根据oa的userCode查询" style="text;html=1;strokeColor=none;fillColor=none;align=center;verticalAlign=middle;whiteSpace=wrap;rounded=0;" vertex="1" parent="1">
          <mxGeometry x="930" y="510" width="139" height="30" as="geometry" />
        </mxCell>
        <mxCell id="QteMDIXKet4iBMp_x6c--35" style="edgeStyle=orthogonalEdgeStyle;rounded=0;orthogonalLoop=1;jettySize=auto;html=1;entryX=0.5;entryY=1;entryDx=0;entryDy=0;" edge="1" parent="1" source="QteMDIXKet4iBMp_x6c--34" target="QteMDIXKet4iBMp_x6c--25">
          <mxGeometry relative="1" as="geometry" />
        </mxCell>
        <mxCell id="QteMDIXKet4iBMp_x6c--52" style="edgeStyle=orthogonalEdgeStyle;rounded=0;orthogonalLoop=1;jettySize=auto;html=1;" edge="1" parent="1" source="QteMDIXKet4iBMp_x6c--34" target="QteMDIXKet4iBMp_x6c--51">
          <mxGeometry relative="1" as="geometry" />
        </mxCell>
        <mxCell id="QteMDIXKet4iBMp_x6c--34" value="查询为空?" style="rhombus;whiteSpace=wrap;html=1;" vertex="1" parent="1">
          <mxGeometry x="953" y="630" width="80" height="80" as="geometry" />
        </mxCell>
        <mxCell id="QteMDIXKet4iBMp_x6c--36" value="抛出异常: 当前用户查询不到买手组" style="text;html=1;strokeColor=none;fillColor=none;align=center;verticalAlign=middle;whiteSpace=wrap;rounded=0;" vertex="1" parent="1">
          <mxGeometry x="1100" y="640" width="190" height="20" as="geometry" />
        </mxCell>
        <mxCell id="QteMDIXKet4iBMp_x6c--37" style="edgeStyle=orthogonalEdgeStyle;rounded=0;orthogonalLoop=1;jettySize=auto;html=1;entryX=0.525;entryY=0.088;entryDx=0;entryDy=0;entryPerimeter=0;" edge="1" parent="1" source="QteMDIXKet4iBMp_x6c--17" target="QteMDIXKet4iBMp_x6c--34">
          <mxGeometry relative="1" as="geometry" />
        </mxCell>
        <mxCell id="QteMDIXKet4iBMp_x6c--41" value="结束" style="rounded=1;whiteSpace=wrap;html=1;fillColor=#fff2cc;strokeColor=#d6b656;" vertex="1" parent="1">
          <mxGeometry x="380" y="650" width="110" height="40" as="geometry" />
        </mxCell>
        <mxCell id="QteMDIXKet4iBMp_x6c--58" style="edgeStyle=orthogonalEdgeStyle;rounded=0;orthogonalLoop=1;jettySize=auto;html=1;entryX=0.5;entryY=0;entryDx=0;entryDy=0;" edge="1" parent="1" source="QteMDIXKet4iBMp_x6c--44" target="QteMDIXKet4iBMp_x6c--57">
          <mxGeometry relative="1" as="geometry" />
        </mxCell>
        <mxCell id="QteMDIXKet4iBMp_x6c--44" value="参数校验" style="rounded=0;whiteSpace=wrap;html=1;" vertex="1" parent="1">
          <mxGeometry x="560" y="780" width="110" height="40" as="geometry" />
        </mxCell>
        <mxCell id="QteMDIXKet4iBMp_x6c--50" value="抛出异常: 买手组不正确" style="text;html=1;strokeColor=none;fillColor=none;align=center;verticalAlign=middle;whiteSpace=wrap;rounded=0;" vertex="1" parent="1">
          <mxGeometry x="1090" y="770.0038547486032" width="190" height="28.156424581005588" as="geometry" />
        </mxCell>
        <mxCell id="QteMDIXKet4iBMp_x6c--46" value="查询外部接口" style="text;html=1;strokeColor=none;fillColor=none;align=center;verticalAlign=middle;whiteSpace=wrap;rounded=0;" vertex="1" parent="1">
          <mxGeometry x="1106.25" y="359.99845070422543" width="93.75" height="18.591549295774648" as="geometry" />
        </mxCell>
        <mxCell id="QteMDIXKet4iBMp_x6c--53" style="edgeStyle=orthogonalEdgeStyle;rounded=0;orthogonalLoop=1;jettySize=auto;html=1;" edge="1" parent="1" source="QteMDIXKet4iBMp_x6c--51" target="QteMDIXKet4iBMp_x6c--25">
          <mxGeometry relative="1" as="geometry" />
        </mxCell>
        <mxCell id="QteMDIXKet4iBMp_x6c--54" style="edgeStyle=orthogonalEdgeStyle;rounded=0;orthogonalLoop=1;jettySize=auto;html=1;entryX=1;entryY=0.5;entryDx=0;entryDy=0;" edge="1" parent="1" source="QteMDIXKet4iBMp_x6c--51" target="QteMDIXKet4iBMp_x6c--44">
          <mxGeometry relative="1" as="geometry" />
        </mxCell>
        <mxCell id="QteMDIXKet4iBMp_x6c--51" value="买手组匹配?" style="rhombus;whiteSpace=wrap;html=1;" vertex="1" parent="1">
          <mxGeometry x="953" y="760" width="80" height="80" as="geometry" />
        </mxCell>
        <mxCell id="QteMDIXKet4iBMp_x6c--56" value="明细不能为空&lt;br&gt;明细不能重复&lt;br&gt;决策方案不能为空&lt;br&gt;生成0元po收货买手组不能为空&lt;br&gt;生成残次收货买手组不能为空&lt;br&gt;手工新建po新po不能为空&lt;br&gt;非手工新建po不能填写新po&lt;br&gt;备注内容限制500个字符" style="text;html=1;strokeColor=none;fillColor=none;align=left;verticalAlign=middle;whiteSpace=wrap;rounded=0;" vertex="1" parent="1">
          <mxGeometry x="700" y="820" width="180" height="112" as="geometry" />
        </mxCell>
        <mxCell id="QteMDIXKet4iBMp_x6c--59" style="edgeStyle=orthogonalEdgeStyle;rounded=0;orthogonalLoop=1;jettySize=auto;html=1;entryX=0.5;entryY=1;entryDx=0;entryDy=0;" edge="1" parent="1" source="QteMDIXKet4iBMp_x6c--57" target="QteMDIXKet4iBMp_x6c--41">
          <mxGeometry relative="1" as="geometry" />
        </mxCell>
        <mxCell id="QteMDIXKet4iBMp_x6c--61" style="edgeStyle=orthogonalEdgeStyle;rounded=0;orthogonalLoop=1;jettySize=auto;html=1;" edge="1" parent="1" source="QteMDIXKet4iBMp_x6c--57" target="QteMDIXKet4iBMp_x6c--60">
          <mxGeometry relative="1" as="geometry" />
        </mxCell>
        <mxCell id="QteMDIXKet4iBMp_x6c--57" value="校验通过?" style="rhombus;whiteSpace=wrap;html=1;" vertex="1" parent="1">
          <mxGeometry x="575" y="876" width="80" height="80" as="geometry" />
        </mxCell>
        <mxCell id="QteMDIXKet4iBMp_x6c--63" style="edgeStyle=orthogonalEdgeStyle;rounded=0;orthogonalLoop=1;jettySize=auto;html=1;" edge="1" parent="1" source="QteMDIXKet4iBMp_x6c--60" target="QteMDIXKet4iBMp_x6c--62">
          <mxGeometry relative="1" as="geometry" />
        </mxCell>
        <mxCell id="QteMDIXKet4iBMp_x6c--66" style="edgeStyle=orthogonalEdgeStyle;rounded=0;orthogonalLoop=1;jettySize=auto;html=1;entryX=0.5;entryY=0;entryDx=0;entryDy=0;" edge="1" parent="1" source="QteMDIXKet4iBMp_x6c--60" target="QteMDIXKet4iBMp_x6c--65">
          <mxGeometry relative="1" as="geometry" />
        </mxCell>
        <mxCell id="QteMDIXKet4iBMp_x6c--60" value="查询新po信息" style="rounded=0;whiteSpace=wrap;html=1;" vertex="1" parent="1">
          <mxGeometry x="560" y="1000" width="110" height="40" as="geometry" />
        </mxCell>
        <mxCell id="QteMDIXKet4iBMp_x6c--62" value="po服务" style="rounded=0;whiteSpace=wrap;html=1;fillColor=#e1d5e7;strokeColor=#9673a6;" vertex="1" parent="1">
          <mxGeometry x="827" y="1000" width="110" height="40" as="geometry" />
        </mxCell>
        <mxCell id="QteMDIXKet4iBMp_x6c--64" value="循环查询，每次最多查20个po" style="text;html=1;strokeColor=none;fillColor=none;align=left;verticalAlign=middle;whiteSpace=wrap;rounded=0;" vertex="1" parent="1">
          <mxGeometry x="970" y="1000" width="180" height="38" as="geometry" />
        </mxCell>
        <mxCell id="QteMDIXKet4iBMp_x6c--72" style="edgeStyle=orthogonalEdgeStyle;rounded=0;orthogonalLoop=1;jettySize=auto;html=1;entryX=0.5;entryY=0;entryDx=0;entryDy=0;" edge="1" parent="1" source="QteMDIXKet4iBMp_x6c--65" target="QteMDIXKet4iBMp_x6c--71">
          <mxGeometry relative="1" as="geometry" />
        </mxCell>
        <mxCell id="QteMDIXKet4iBMp_x6c--65" value="查询理货明细" style="rounded=0;whiteSpace=wrap;html=1;" vertex="1" parent="1">
          <mxGeometry x="560" y="1110" width="110" height="40" as="geometry" />
        </mxCell>
        <mxCell id="QteMDIXKet4iBMp_x6c--67" value="DB" style="shape=cylinder3;whiteSpace=wrap;html=1;boundedLbl=1;backgroundOutline=1;size=15;fillColor=#f5f5f5;fontColor=#333333;strokeColor=#666666;" vertex="1" parent="1">
          <mxGeometry x="850" y="1099.5" width="50" height="61" as="geometry" />
        </mxCell>
        <mxCell id="QteMDIXKet4iBMp_x6c--68" style="edgeStyle=orthogonalEdgeStyle;rounded=0;orthogonalLoop=1;jettySize=auto;html=1;entryX=0;entryY=0.5;entryDx=0;entryDy=0;entryPerimeter=0;" edge="1" parent="1" source="QteMDIXKet4iBMp_x6c--65" target="QteMDIXKet4iBMp_x6c--67">
          <mxGeometry relative="1" as="geometry" />
        </mxCell>
        <mxCell id="QteMDIXKet4iBMp_x6c--70" value="根据id查询" style="text;html=1;align=center;verticalAlign=middle;resizable=0;points=[];autosize=1;strokeColor=none;fillColor=none;" vertex="1" parent="1">
          <mxGeometry x="710" y="1099.5" width="80" height="30" as="geometry" />
        </mxCell>
        <mxCell id="QteMDIXKet4iBMp_x6c--71" value="查询理货单据" style="rounded=0;whiteSpace=wrap;html=1;" vertex="1" parent="1">
          <mxGeometry x="560" y="1206" width="110" height="40" as="geometry" />
        </mxCell>
        <mxCell id="QteMDIXKet4iBMp_x6c--73" value="DB" style="shape=cylinder3;whiteSpace=wrap;html=1;boundedLbl=1;backgroundOutline=1;size=15;fillColor=#f5f5f5;fontColor=#333333;strokeColor=#666666;" vertex="1" parent="1">
          <mxGeometry x="850" y="1195.5" width="50" height="61" as="geometry" />
        </mxCell>
        <mxCell id="QteMDIXKet4iBMp_x6c--74" style="edgeStyle=orthogonalEdgeStyle;rounded=0;orthogonalLoop=1;jettySize=auto;html=1;entryX=0;entryY=0.5;entryDx=0;entryDy=0;entryPerimeter=0;" edge="1" parent="1" source="QteMDIXKet4iBMp_x6c--71" target="QteMDIXKet4iBMp_x6c--73">
          <mxGeometry relative="1" as="geometry" />
        </mxCell>
        <mxCell id="QteMDIXKet4iBMp_x6c--76" value="tally" style="text;html=1;strokeColor=none;fillColor=none;align=left;verticalAlign=middle;whiteSpace=wrap;rounded=0;" vertex="1" parent="1">
          <mxGeometry x="920" y="1228" width="60" height="18" as="geometry" />
        </mxCell>
        <mxCell id="QteMDIXKet4iBMp_x6c--77" value="tally_item" style="text;html=1;strokeColor=none;fillColor=none;align=left;verticalAlign=middle;whiteSpace=wrap;rounded=0;" vertex="1" parent="1">
          <mxGeometry x="920" y="1129.5" width="60" height="18" as="geometry" />
        </mxCell>
        <mxCell id="QteMDIXKet4iBMp_x6c--79" value="根据id查询" style="text;html=1;align=center;verticalAlign=middle;resizable=0;points=[];autosize=1;strokeColor=none;fillColor=none;" vertex="1" parent="1">
          <mxGeometry x="720" y="1195.5" width="80" height="30" as="geometry" />
        </mxCell>
        <mxCell id="QteMDIXKet4iBMp_x6c--80" value="提取理货单据id" style="text;html=1;align=center;verticalAlign=middle;resizable=0;points=[];autosize=1;strokeColor=none;fillColor=none;" vertex="1" parent="1">
          <mxGeometry x="510" y="1159.5" width="100" height="30" as="geometry" />
        </mxCell>
        <mxCell id="QteMDIXKet4iBMp_x6c--81" value="com.vip.vis.vreturn.api.service.impl.TallyInternalOspServiceImpl#commitTallyV2" style="text;html=1;strokeColor=none;fillColor=none;align=center;verticalAlign=middle;whiteSpace=wrap;rounded=0;" vertex="1" parent="1">
          <mxGeometry x="470" y="20" width="420" height="30" as="geometry" />
        </mxCell>
      </root>
    </mxGraphModel>
  </diagram>
  <diagram id="IGCWAGiyvfEg2mATdKYU" name="批量上抛商品异常">
    <mxGraphModel dx="1434" dy="764" grid="1" gridSize="10" guides="1" tooltips="1" connect="1" arrows="1" fold="1" page="1" pageScale="1" pageWidth="827" pageHeight="1169" math="0" shadow="0">
      <root>
        <mxCell id="0" />
        <mxCell id="1" parent="0" />
      </root>
    </mxGraphModel>
  </diagram>
</mxfile>
